<mxfile host="app.diagrams.net" modified="2022-03-23T07:44:46.669Z" agent="5.0 (Macintosh; Intel Mac OS X 10_15_7) AppleWebKit/537.36 (KHTML, like Gecko) Chrome/99.0.4844.74 Safari/537.36" etag="uewYqT-a77zYDaS0EWh_" version="17.1.3" type="github">
  <diagram id="IxEaBiBY9RQ0BZ5e8lzB" name="Page-1">
    <mxGraphModel dx="1634" dy="684" grid="0" gridSize="10" guides="1" tooltips="1" connect="1" arrows="1" fold="1" page="0" pageScale="1" pageWidth="827" pageHeight="1169" math="0" shadow="0">
      <root>
        <mxCell id="0" />
        <mxCell id="1" parent="0" />
        <mxCell id="cor3wmo5FigD4dXmAoRj-5" style="edgeStyle=orthogonalEdgeStyle;rounded=0;orthogonalLoop=1;jettySize=auto;html=1;entryX=0.5;entryY=0;entryDx=0;entryDy=0;" edge="1" parent="1">
          <mxGeometry relative="1" as="geometry">
            <mxPoint x="230" y="177" as="sourcePoint" />
            <mxPoint x="230" y="207" as="targetPoint" />
          </mxGeometry>
        </mxCell>
        <mxCell id="cor3wmo5FigD4dXmAoRj-22" value="查询数据" style="edgeLabel;html=1;align=center;verticalAlign=middle;resizable=0;points=[];" vertex="1" connectable="0" parent="cor3wmo5FigD4dXmAoRj-5">
          <mxGeometry relative="1" as="geometry">
            <mxPoint x="32" y="-14" as="offset" />
          </mxGeometry>
        </mxCell>
        <mxCell id="cor3wmo5FigD4dXmAoRj-23" value="" style="edgeStyle=orthogonalEdgeStyle;rounded=0;orthogonalLoop=1;jettySize=auto;html=1;" edge="1" parent="1" target="cor3wmo5FigD4dXmAoRj-2">
          <mxGeometry relative="1" as="geometry">
            <mxPoint x="230" y="160" as="sourcePoint" />
          </mxGeometry>
        </mxCell>
        <mxCell id="cor3wmo5FigD4dXmAoRj-1" value="用户" style="shape=umlActor;verticalLabelPosition=bottom;verticalAlign=top;html=1;outlineConnect=0;fillColor=#d0cee2;strokeColor=#56517e;" vertex="1" parent="1">
          <mxGeometry x="215" y="70" width="30" height="60" as="geometry" />
        </mxCell>
        <mxCell id="cor3wmo5FigD4dXmAoRj-6" style="edgeStyle=orthogonalEdgeStyle;rounded=0;orthogonalLoop=1;jettySize=auto;html=1;exitX=1;exitY=0.25;exitDx=0;exitDy=0;entryX=0;entryY=0.25;entryDx=0;entryDy=0;" edge="1" parent="1">
          <mxGeometry relative="1" as="geometry">
            <mxPoint x="270" y="230" as="sourcePoint" />
            <mxPoint x="360" y="230" as="targetPoint" />
          </mxGeometry>
        </mxCell>
        <mxCell id="cor3wmo5FigD4dXmAoRj-10" style="edgeStyle=orthogonalEdgeStyle;rounded=0;orthogonalLoop=1;jettySize=auto;html=1;exitX=0.5;exitY=1;exitDx=0;exitDy=0;" edge="1" parent="1" source="cor3wmo5FigD4dXmAoRj-2" target="cor3wmo5FigD4dXmAoRj-8">
          <mxGeometry relative="1" as="geometry" />
        </mxCell>
        <mxCell id="cor3wmo5FigD4dXmAoRj-18" style="edgeStyle=orthogonalEdgeStyle;rounded=0;orthogonalLoop=1;jettySize=auto;html=1;entryX=1;entryY=0.5;entryDx=0;entryDy=0;" edge="1" parent="1" source="cor3wmo5FigD4dXmAoRj-2" target="cor3wmo5FigD4dXmAoRj-9">
          <mxGeometry relative="1" as="geometry">
            <mxPoint x="80" y="240" as="targetPoint" />
          </mxGeometry>
        </mxCell>
        <mxCell id="cor3wmo5FigD4dXmAoRj-19" value="异步任务" style="edgeLabel;html=1;align=center;verticalAlign=middle;resizable=0;points=[];" vertex="1" connectable="0" parent="cor3wmo5FigD4dXmAoRj-18">
          <mxGeometry x="0.0053" relative="1" as="geometry">
            <mxPoint y="-13" as="offset" />
          </mxGeometry>
        </mxCell>
        <mxCell id="cor3wmo5FigD4dXmAoRj-2" value="pms web应用" style="rounded=1;whiteSpace=wrap;html=1;fillColor=#d5e8d4;strokeColor=#82b366;glass=0;sketch=0;shadow=0;" vertex="1" parent="1">
          <mxGeometry x="170" y="210" width="120" height="60" as="geometry" />
        </mxCell>
        <mxCell id="cor3wmo5FigD4dXmAoRj-7" style="edgeStyle=orthogonalEdgeStyle;rounded=0;orthogonalLoop=1;jettySize=auto;html=1;exitX=0;exitY=0.75;exitDx=0;exitDy=0;entryX=1;entryY=0.75;entryDx=0;entryDy=0;" edge="1" parent="1" source="cor3wmo5FigD4dXmAoRj-3" target="cor3wmo5FigD4dXmAoRj-2">
          <mxGeometry relative="1" as="geometry">
            <mxPoint x="300" y="250" as="targetPoint" />
            <Array as="points" />
          </mxGeometry>
        </mxCell>
        <mxCell id="cor3wmo5FigD4dXmAoRj-3" value="xunSearch查询服务&amp;nbsp;" style="rounded=1;whiteSpace=wrap;html=1;fillColor=#dae8fc;strokeColor=#6c8ebf;glass=0;sketch=0;shadow=0;" vertex="1" parent="1">
          <mxGeometry x="360" y="210" width="140" height="60" as="geometry" />
        </mxCell>
        <mxCell id="cor3wmo5FigD4dXmAoRj-4" value="xunSearch索引服务" style="rounded=1;whiteSpace=wrap;html=1;fillColor=#dae8fc;strokeColor=#6c8ebf;glass=0;sketch=0;shadow=0;" vertex="1" parent="1">
          <mxGeometry x="360" y="360" width="140" height="60" as="geometry" />
        </mxCell>
        <mxCell id="cor3wmo5FigD4dXmAoRj-8" value="数据库" style="shape=cylinder3;whiteSpace=wrap;html=1;boundedLbl=1;backgroundOutline=1;size=15;fillColor=#f8cecc;strokeColor=#b85450;" vertex="1" parent="1">
          <mxGeometry x="180" y="350" width="100" height="80" as="geometry" />
        </mxCell>
        <mxCell id="cor3wmo5FigD4dXmAoRj-12" style="edgeStyle=orthogonalEdgeStyle;rounded=0;orthogonalLoop=1;jettySize=auto;html=1;entryX=0.5;entryY=0;entryDx=0;entryDy=0;" edge="1" parent="1" source="cor3wmo5FigD4dXmAoRj-9" target="cor3wmo5FigD4dXmAoRj-11">
          <mxGeometry relative="1" as="geometry" />
        </mxCell>
        <mxCell id="cor3wmo5FigD4dXmAoRj-9" value="pms 命令行程序" style="rounded=1;whiteSpace=wrap;html=1;fillColor=#d5e8d4;strokeColor=#82b366;glass=0;sketch=0;shadow=0;" vertex="1" parent="1">
          <mxGeometry x="-50" y="210" width="120" height="60" as="geometry" />
        </mxCell>
        <mxCell id="cor3wmo5FigD4dXmAoRj-14" style="edgeStyle=orthogonalEdgeStyle;rounded=0;orthogonalLoop=1;jettySize=auto;html=1;" edge="1" parent="1" source="cor3wmo5FigD4dXmAoRj-11">
          <mxGeometry relative="1" as="geometry">
            <mxPoint x="430" y="420" as="targetPoint" />
            <Array as="points">
              <mxPoint x="10" y="460" />
              <mxPoint x="430" y="460" />
              <mxPoint x="430" y="423" />
            </Array>
          </mxGeometry>
        </mxCell>
        <mxCell id="cor3wmo5FigD4dXmAoRj-17" value="创建索引" style="edgeLabel;html=1;align=center;verticalAlign=middle;resizable=0;points=[];" vertex="1" connectable="0" parent="cor3wmo5FigD4dXmAoRj-14">
          <mxGeometry x="-0.1695" y="-2" relative="1" as="geometry">
            <mxPoint x="27" y="8" as="offset" />
          </mxGeometry>
        </mxCell>
        <mxCell id="cor3wmo5FigD4dXmAoRj-15" style="edgeStyle=orthogonalEdgeStyle;rounded=0;orthogonalLoop=1;jettySize=auto;html=1;" edge="1" parent="1" source="cor3wmo5FigD4dXmAoRj-11">
          <mxGeometry relative="1" as="geometry">
            <mxPoint x="170" y="400" as="targetPoint" />
          </mxGeometry>
        </mxCell>
        <mxCell id="cor3wmo5FigD4dXmAoRj-16" value="查询新生成&lt;br&gt;的业务数据" style="edgeLabel;html=1;align=center;verticalAlign=middle;resizable=0;points=[];" vertex="1" connectable="0" parent="cor3wmo5FigD4dXmAoRj-15">
          <mxGeometry x="0.02" y="1" relative="1" as="geometry">
            <mxPoint y="-19" as="offset" />
          </mxGeometry>
        </mxCell>
        <mxCell id="cor3wmo5FigD4dXmAoRj-11" value="定时任务&lt;br&gt;建立索引数据" style="rounded=1;whiteSpace=wrap;html=1;fillColor=#d5e8d4;strokeColor=#82b366;glass=0;sketch=0;shadow=0;" vertex="1" parent="1">
          <mxGeometry x="-50" y="370" width="120" height="60" as="geometry" />
        </mxCell>
      </root>
    </mxGraphModel>
  </diagram>
</mxfile>
